HIERARCHY
ROOT Hips
{
	OFFSET 0.00000 0.00000 0.00000
	CHANNELS 6 Xposition Yposition Zposition Zrotation Yrotation Xrotation 
	JOINT LHipJoint
	{
		OFFSET 0 0 0
		CHANNELS 3 Zrotation Yrotation Xrotation
		JOINT LeftUpLeg
		{
			OFFSET 1.64577 -1.42384 0.94276
			CHANNELS 3 Zrotation Yrotation Xrotation
			JOINT LeftLeg
			{
				OFFSET 2.11538 -5.81197 0.00000
				CHANNELS 3 Zrotation Yrotation Xrotation
				JOINT LeftFoot
				{
					OFFSET 2.36541 -6.49893 0.00000
					CHANNELS 3 Zrotation Yrotation Xrotation
					JOINT LeftToeBase
					{
						OFFSET 0.17759 -0.48793 1.73865
						CHANNELS 3 Zrotation Yrotation Xrotation
						End Site
						{
							OFFSET 0.00000 -0.00000 0.91205
						}
					}
				}
			}
		}
	}
	JOINT RHipJoint
	{
		OFFSET 0 0 0
		CHANNELS 3 Zrotation Yrotation Xrotation
		JOINT RightUpLeg
		{
			OFFSET -1.43750 -1.42384 0.94276
			CHANNELS 3 Zrotation Yrotation Xrotation
			JOINT RightLeg
			{
				OFFSET -2.10480 -5.78291 0.00000
				CHANNELS 3 Zrotation Yrotation Xrotation
				JOINT RightFoot
				{
					OFFSET -2.34880 -6.45329 0.00000
					CHANNELS 3 Zrotation Yrotation Xrotation
					JOINT RightToeBase
					{
						OFFSET -0.22842 -0.62757 1.80469
						CHANNELS 3 Zrotation Yrotation Xrotation
						End Site
						{
							OFFSET -0.00000 -0.00000 0.95886
						}
					}
				}
			}
		}
	}
	JOINT LowerBack
	{
		OFFSET 0 0 0
		CHANNELS 3 Zrotation Yrotation Xrotation
		JOINT Spine
		{
			OFFSET 0.06217 1.93758 -0.49272
			CHANNELS 3 Zrotation Yrotation Xrotation
			JOINT Spine1
			{
				OFFSET -0.03114 2.03621 -0.05830
				CHANNELS 3 Zrotation Yrotation Xrotation
				JOINT Neck
				{
					OFFSET 0 0 0
					CHANNELS 3 Zrotation Yrotation Xrotation
					JOINT Neck1
					{
						OFFSET 0.04421 1.41010 0.26562
						CHANNELS 3 Zrotation Yrotation Xrotation
						JOINT Head
						{
							OFFSET -0.13407 1.43847 0.06181
							CHANNELS 3 Zrotation Yrotation Xrotation
							End Site
							{
								OFFSET -0.04980 1.45844 -0.00689
							}
						}
					}
				}
				JOINT LeftShoulder
				{
					OFFSET 0 0 0
					CHANNELS 3 Zrotation Yrotation Xrotation
					JOINT LeftArm
					{
						OFFSET 2.18382 1.47753 -0.35694
						CHANNELS 3 Zrotation Yrotation Xrotation
						JOINT LeftForeArm
						{
							OFFSET 5.05460 -0.00000 0.00000
							CHANNELS 3 Zrotation Yrotation Xrotation
							JOINT LeftHand
							{
								OFFSET 3.39013 -0.00000 0.00000
								CHANNELS 3 Zrotation Yrotation Xrotation
								JOINT LeftFingerBase
								{
									OFFSET 0 0 0
									CHANNELS 3 Zrotation Yrotation Xrotation
									JOINT LeftHandIndex1
									{
										OFFSET 0.57242 -0.00000 -0.00000
										CHANNELS 3 Zrotation Yrotation Xrotation
										End Site
										{
											OFFSET 0.46150 -0.00000 -0.00000
										}
									}
								}
								JOINT LThumb
								{
									OFFSET 0 0 0
									CHANNELS 3 Zrotation Yrotation Xrotation
									End Site
									{
										OFFSET 0.46855 -0.00000 0.46855
									}
								}
							}
						}
					}
				}
				JOINT RightShoulder
				{
					OFFSET 0 0 0
					CHANNELS 3 Zrotation Yrotation Xrotation
					JOINT RightArm
					{
						OFFSET -2.06033 1.72839 -0.47437
						CHANNELS 3 Zrotation Yrotation Xrotation
						JOINT RightForeArm
						{
							OFFSET -5.07010 -0.00000 0.00000
							CHANNELS 3 Zrotation Yrotation Xrotation
							JOINT RightHand
							{
								OFFSET -3.14957 -0.00000 -0.00000
								CHANNELS 3 Zrotation Yrotation Xrotation
								JOINT RightFingerBase
								{
									OFFSET 0 0 0
									CHANNELS 3 Zrotation Yrotation Xrotation
									JOINT RightHandIndex1
									{
										OFFSET -0.71819 -0.00000 -0.00000
										CHANNELS 3 Zrotation Yrotation Xrotation
										End Site
										{
											OFFSET -0.57902 -0.00000 -0.00000
										}
									}
								}
								JOINT RThumb
								{
									OFFSET 0 0 0
									CHANNELS 3 Zrotation Yrotation Xrotation
									End Site
									{
										OFFSET -0.58786 -0.00000 0.58786
									}
								}
							}
						}
					}
				}
			}
		}
	}
}
MOTION
Frames: 15
Frame Time: .04
15.9340 15.2975 -0.8206 -183.1920 -82.7018 177.7940 0.0000 0.0000 0.0000 -24.2952 -13.2341 11.9754 1.3444 7.3410 20.7295 1.3679 18.0830 -34.8338 0.0226 -0.9708 -2.6685 0.0000 0.0000 0.0000 25.8334 12.2244 10.2878 -1.4609 -7.6391 21.6231 -3.1272 -19.3418 -44.2600 -0.5046 4.5537 -12.6400 0.9229 1.8746 2.5142 -0.5979 2.5177 -0.5459 -1.2320 1.2429 -1.9013 10.7522 5.1774 -5.7108 -15.8846 8.0974 16.1433 -6.3696 3.2694 6.9124 0.0000 -0.0000 0.0000 36.6923 -29.7811 -31.2349 44.0652 -50.3022 -21.5171 -0.0000 -0.0000 0.1780 45.5577 -5.9938 -6.0776 -7.1250 0.0000 -0.0000 13.5964 21.5351 -7.8762 0.0000 -0.0000 0.0000 -33.5744 32.9253 -37.3035 -66.8075 57.8667 -40.0586 0.0000 -0.0000 -12.7357 -56.3194 35.7757 -41.2583 7.1250 -0.0000 -0.0000 -11.6049 21.5601 -15.2947
15.9533 15.3002 -0.8175 -183.0990 -82.5999 177.7090 0.0000 0.0000 0.0000 -24.2549 -13.1883 11.8739 1.3446 7.3414 20.7308 1.3486 18.1233 -34.7651 0.0252 -1.0255 -2.8189 0.0000 0.0000 0.0000 25.7650 12.1850 10.1584 -1.4585 -7.6331 21.6050 -3.0582 -19.3689 -43.9955 -0.5278 4.6554 -12.9283 0.9520 1.8625 2.6102 -0.6221 2.5026 -0.4971 -1.2749 1.2351 -1.9033 10.8134 5.1246 -5.7904 -15.7713 8.0129 16.3554 -6.3534 3.2317 6.9794 0.0000 -0.0000 0.0000 37.0050 -30.2396 -30.9544 43.4718 -49.9975 -21.0615 -0.0000 -0.0000 0.4798 45.7380 -6.6851 -6.8118 -7.1250 0.0000 -0.0000 13.5772 20.5590 -8.1738 0.0000 -0.0000 0.0000 -33.9152 33.1626 -37.3450 -64.5815 57.4121 -38.1781 0.0000 -0.0000 -11.8208 -57.9449 36.2941 -43.3882 7.1250 -0.0000 -0.0000 -12.1971 23.1814 -16.2828
15.9720 15.3038 -0.8147 -182.8970 -82.4615 177.5330 0.0000 0.0000 0.0000 -24.1905 -13.1252 11.7520 1.3441 7.3401 20.7270 1.3303 18.1653 -34.7036 0.0271 -1.0630 -2.9222 0.0000 0.0000 0.0000 25.7045 12.1607 10.0087 -1.4557 -7.6261 21.5842 -2.9811 -19.3916 -43.6916 -0.5493 4.7481 -13.1915 1.0006 1.8471 2.7430 -0.6504 2.4841 -0.4572 -1.3344 1.2251 -1.9340 10.8666 5.1063 -5.8610 -15.6703 7.9746 16.5177 -6.3345 3.2169 7.0363 0.0000 -0.0000 0.0000 37.0507 -30.4113 -30.9104 42.1125 -49.2728 -20.0257 -0.0000 -0.0000 0.3775 46.1024 -7.2140 -7.4352 -7.1250 0.0000 -0.0000 13.7149 19.7728 -8.5116 0.0000 -0.0000 0.0000 -33.9187 33.1478 -37.4729 -61.4136 56.6750 -35.5198 0.0000 -0.0000 -11.5626 -58.4663 36.2828 -43.9620 7.1250 -0.0000 -0.0000 -12.4567 23.5231 -16.6785
15.9896 15.3088 -0.8123 -182.7170 -82.2832 177.4070 0.0000 0.0000 0.0000 -24.1268 -13.0670 11.6146 1.3420 7.3345 20.7101 1.3158 18.2184 -34.6739 0.0268 -1.0566 -2.9045 0.0000 0.0000 0.0000 25.6420 12.1804 9.8400 -1.4529 -7.6189 21.5625 -2.8972 -19.4278 -43.3671 -0.5722 4.8442 -13.4647 1.0432 1.8286 2.8980 -0.6829 2.4613 -0.4281 -1.3957 1.2126 -1.9886 10.9095 5.1165 -5.8905 -15.5854 7.9745 16.5942 -6.3139 3.2229 7.0644 -0.0000 0.0000 0.0000 36.8339 -30.2666 -31.0679 40.1435 -48.1547 -18.5461 -0.0000 -0.0000 0.1156 46.6104 -7.4841 -7.8452 -7.1250 0.0000 -0.0000 14.0011 19.3122 -8.8493 -0.0000 0.0000 0.0000 -33.6071 32.8769 -37.6842 -57.5107 55.6093 -32.2782 0.0000 -0.0000 -11.7019 -58.1496 35.8669 -43.3231 7.1250 -0.0000 -0.0000 -12.4689 22.8688 -16.6238
16.0059 15.3153 -0.8106 -182.6880 -82.0626 177.4670 0.0000 0.0000 0.0000 -24.0871 -13.0291 11.4658 1.3370 7.3214 20.6710 1.3080 18.2849 -34.6956 0.0233 -0.9849 -2.7073 0.0000 0.0000 0.0000 25.5645 12.2643 9.6500 -1.4511 -7.6144 21.5488 -2.8121 -19.4749 -43.0433 -0.5979 4.9502 -13.7665 1.0495 1.8097 3.0613 -0.7205 2.4366 -0.4088 -1.4422 1.1994 -2.0592 10.9435 5.1471 -5.8732 -15.5211 8.0016 16.5740 -6.2944 3.2446 7.0578 0.0000 -0.0000 0.0000 36.3780 -29.8073 -31.4184 37.7488 -46.6782 -16.7826 -0.0000 0.0000 -0.1611 47.2511 -7.3711 -7.9019 -7.1250 0.0000 -0.0000 14.4578 19.3562 -9.1423 0.0000 -0.0000 0.0000 -33.0200 32.3549 -37.9597 -53.0975 54.1709 -28.6671 0.0000 -0.0000 -12.1015 -57.3832 35.1947 -42.0075 7.1250 -0.0000 -0.0000 -12.3555 21.6346 -16.3273
16.0209 15.3229 -0.8097 -182.8230 -81.7995 177.7180 0.0000 0.0000 0.0000 -24.0786 -13.0138 11.3195 1.3282 7.2982 20.6020 1.3086 18.3635 -34.7765 0.0172 -0.8465 -2.3264 0.0000 0.0000 0.0000 25.4710 12.4110 9.4417 -1.4519 -7.6165 21.5553 -2.7384 -19.4990 -42.7468 -0.6237 5.0538 -14.0620 1.0032 1.7946 3.2286 -0.7611 2.4147 -0.3921 -1.4628 1.1880 -2.1367 10.9767 5.1931 -5.8432 -15.4747 8.0481 16.4821 -6.2774 3.2770 7.0296 -0.0000 -0.0000 0.0000 35.7158 -29.0454 -31.9242 35.1332 -44.9070 -14.9073 -0.0000 0.0000 -0.4997 47.8459 -6.9584 -7.6223 -7.1250 0.0000 -0.0000 14.9519 19.8321 -9.3116 -0.0000 -0.0000 0.0000 -32.1879 31.5985 -38.2827 -48.4353 52.3446 -24.9299 0.0000 -0.0000 -12.7005 -56.4033 34.1544 -40.2018 7.1250 -0.0000 -0.0000 -12.2633 19.8555 -15.9867
16.0348 15.3311 -0.8096 -183.1260 -81.5040 178.1620 0.0000 0.0000 0.0000 -24.1075 -13.0241 11.1843 1.3155 7.2647 20.5019 1.3142 18.4653 -34.9082 0.0108 -0.6700 -1.8412 0.0000 0.0000 0.0000 25.3523 12.5970 9.2095 -1.4565 -7.6280 21.5896 -2.6833 -19.4675 -42.4836 -0.6464 5.1433 -14.3178 0.8938 1.7856 3.3947 -0.8067 2.3979 -0.3706 -1.4531 1.1799 -2.2110 11.0070 5.2398 -5.8389 -15.4362 8.0935 16.3664 -6.2616 3.3079 6.9985 -0.0000 0.0000 0.0000 34.8793 -28.0140 -32.5803 32.4817 -42.9278 -13.0677 -0.0000 0.0000 -1.0092 48.2677 -6.1382 -6.8358 -7.1250 0.0000 -0.0000 15.4281 20.9278 -9.2342 -0.0000 0.0000 0.0000 -31.1275 30.6230 -38.6276 -43.7780 50.1556 -21.2963 0.0000 -0.0000 -13.4475 -55.1075 32.7969 -37.8355 7.1250 -0.0000 -0.0000 -12.1027 17.5125 -15.4669
16.0480 15.3395 -0.8104 -183.5130 -81.1909 178.7110 0.0000 0.0000 0.0000 -24.1596 -13.0613 11.0544 1.3002 7.2240 20.3806 1.3208 18.5931 -35.0710 0.0056 -0.4847 -1.3317 0.0000 0.0000 0.0000 25.2119 12.7963 8.9444 -1.4640 -7.6468 21.6462 -2.6433 -19.3807 -42.2392 -0.6654 5.2167 -14.5276 0.7279 1.7835 3.5598 -0.8569 2.3868 -0.3401 -1.4167 1.1754 -2.2772 11.0228 5.2821 -5.8923 -15.3771 8.1279 16.2495 -6.2361 3.3324 6.9747 0.0000 -0.0000 0.0000 33.8843 -26.7554 -33.4113 29.9281 -40.8317 -11.3626 -0.0000 0.0000 -1.6239 48.2450 -4.8041 -5.3596 -7.1250 0.0000 -0.0000 15.7270 22.8402 -8.7123 0.0000 -0.0000 0.0000 -29.8444 29.4401 -38.9875 -39.3366 47.6719 -17.9473 0.0000 -0.0000 -14.3579 -53.2973 31.0569 -34.6851 7.1250 -0.0000 -0.0000 -11.7695 14.4159 -14.5955
16.0610 15.3477 -0.8121 -183.8870 -80.8767 179.2640 0.0000 0.0000 0.0000 -24.2175 -13.1247 10.9231 1.2853 7.1840 20.2617 1.3281 18.7352 -35.2515 0.0022 -0.3049 -0.8377 0.0000 0.0000 0.0000 25.0629 12.9849 8.6574 -1.4714 -7.6653 21.7021 -2.6136 -19.2521 -42.0048 -0.6783 5.2661 -14.6691 0.5177 1.7852 3.7314 -0.9070 2.3781 -0.2967 -1.3553 1.1727 -2.3355 11.0069 5.3200 -6.0306 -15.2755 8.1500 16.1524 -6.1905 3.3488 6.9677 -0.0000 0.0000 0.0000 32.7269 -25.3029 -34.4194 27.5832 -38.7297 -9.8618 -0.0000 0.0000 -2.2516 47.6816 -2.8416 -3.1165 -7.1250 0.0000 -0.0000 15.7900 25.7057 -7.6565 -0.0000 0.0000 0.0000 -28.3268 28.0685 -39.3224 -35.3081 45.0309 -15.0309 0.0000 -0.0000 -15.4590 -51.0420 28.7499 -30.7468 7.1250 -0.0000 -0.0000 -11.3171 10.4236 -13.4176
16.0739 15.3554 -0.8147 -184.0680 -80.5762 179.6320 0.0000 0.0000 0.0000 -24.2464 -13.2178 10.7848 1.2739 7.1532 20.1700 1.3373 18.8783 -35.4438 0.0004 -0.1351 -0.3711 0.0000 0.0000 0.0000 24.9432 13.1536 8.3714 -1.4751 -7.6745 21.7298 -2.5869 -19.1122 -41.7729 -0.6843 5.2890 -14.7347 0.2970 1.7856 3.9223 -0.9484 2.3665 -0.2426 -1.2796 1.1687 -2.3944 10.9212 5.3468 -6.2378 -15.0979 8.1496 16.0638 -6.1077 3.3533 6.9665 0.0000 0.0000 0.0000 31.3927 -23.6700 -35.5400 25.5198 -36.7306 -8.5989 -0.0000 0.0000 -2.8941 46.6751 -0.3130 -0.3318 -7.1250 0.0000 -0.0000 15.6257 29.3387 -6.1753 0.0000 0.0000 0.0000 -26.5633 26.5461 -39.6261 -31.7763 42.3681 -12.5898 0.0000 -0.0000 -16.8353 -48.3533 25.7594 -26.0444 7.1250 -0.0000 -0.0000 -10.7215 5.4481 -11.8926
16.0870 15.3629 -0.8182 -183.7510 -80.2930 179.5090 0.0000 0.0000 0.0000 -24.1864 -13.3419 10.6386 1.2675 7.1359 20.1187 1.3508 19.0122 -35.6500 0.0000 0.0340 0.0935 0.0000 0.0000 0.0000 24.9216 13.3182 8.1105 -1.4725 -7.6680 21.7103 -2.5539 -19.0041 -41.5383 -0.6845 5.2897 -14.7366 0.1293 1.7828 4.1516 -0.9680 2.3527 -0.1845 -1.2121 1.1630 -2.4696 10.7821 5.3663 -6.5000 -14.8675 8.1338 15.9700 -5.9978 3.3498 6.9670 0.0000 0.0000 0.0000 29.8696 -21.8669 -36.6704 23.7807 -34.9315 -7.5806 -0.0000 0.0000 -3.6228 45.4449 2.6627 2.7014 -7.1250 0.0000 -0.0000 15.3115 33.4679 -4.4658 0.0000 0.0000 0.0000 -24.5458 24.9214 -39.8835 -28.7847 39.8287 -10.6226 0.0000 -0.0000 -18.5522 -45.4867 22.0548 -20.9032 7.1250 -0.0000 -0.0000 -10.0499 -0.3598 -10.1442
16.1001 15.3698 -0.8225 -183.0330 -80.0306 178.9840 0.0000 0.0000 0.0000 -24.0494 -13.4960 10.4868 1.2668 7.1340 20.1130 1.3709 19.1313 -35.8764 0.0010 0.2080 0.5714 0.0000 0.0000 0.0000 24.9899 13.4816 7.8903 -1.4622 -7.6422 21.6324 -2.5130 -18.9386 -41.3017 -0.6800 5.2725 -14.6873 0.0179 1.7768 4.4236 -0.9680 2.3371 -0.1274 -1.1573 1.1558 -2.5682 10.6040 5.3709 -6.7784 -14.6215 8.0965 15.8419 -5.8774 3.3355 6.9542 0.0000 0.0000 0.0000 28.1492 -19.9379 -37.7974 22.3283 -33.3461 -6.7654 -0.0000 0.0000 -4.4147 44.1654 5.9449 5.7445 -7.1250 0.0000 -0.0000 14.9038 37.8414 -2.6988 0.0000 0.0000 0.0000 -22.2820 23.2481 -40.1536 -26.2930 37.4966 -9.0654 0.0000 -0.0000 -20.6622 -42.6146 17.7455 -15.6641 7.1250 -0.0000 -0.0000 -9.2986 -6.7341 -8.2563
16.1129 15.3761 -0.8272 -182.2550 -79.8006 178.3970 0.0000 0.0000 0.0000 -23.8945 -13.6740 10.3243 1.2711 7.1458 20.1479 1.3965 19.2328 -36.1136 0.0034 0.3751 1.0308 0.0000 0.0000 0.0000 25.0806 13.6263 7.7039 -1.4443 -7.5975 21.4979 -2.4653 -18.9061 -41.0598 -0.6736 5.2482 -14.6180 -0.0789 1.7685 4.7258 -0.9649 2.3183 -0.0759 -1.1085 1.1467 -2.6890 10.4131 5.3560 -7.0368 -14.3996 8.0354 15.6594 -5.7652 3.3097 6.9177 0.0000 -0.0000 0.0000 26.2348 -17.9392 -38.9295 21.1117 -31.9585 -6.1090 -0.0000 0.0000 -5.2207 43.1118 9.5307 8.8111 -7.1250 0.0000 -0.0000 14.6085 42.4580 -0.9381 0.0000 -0.0000 0.0000 -19.7871 21.5680 -40.5152 -24.2444 35.4217 -7.8478 0.0000 -0.0000 -23.1930 -39.9674 13.0233 -10.6955 7.1250 -0.0000 -0.0000 -8.5140 -13.3209 -6.3958
16.1252 15.3818 -0.8320 -181.4720 -79.6020 177.8030 0.0000 0.0000 0.0000 -23.7298 -13.8609 10.1553 1.2779 7.1641 20.2024 1.4257 19.3138 -36.3491 0.0067 0.5291 1.4538 0.0000 0.0000 0.0000 25.1805 13.7498 7.5412 -1.4220 -7.5409 21.3282 -2.4166 -18.8882 -40.8237 -0.6655 5.2171 -14.5287 -0.1605 1.7616 5.0473 -0.9607 2.3013 -0.0291 -1.0679 1.1383 -2.8248 10.2296 5.3257 -7.2822 -14.2220 7.9572 15.4353 -5.6711 3.2745 6.8657 0.0000 -0.0000 0.0000 24.1396 -15.9161 -40.0773 20.0687 -30.7250 -5.5664 -0.0000 0.0000 -5.9864 42.3227 12.9409 11.5267 -7.1250 0.0000 -0.0000 14.3905 46.7229 0.6244 0.0000 -0.0000 0.0000 -17.0918 19.9191 -41.0796 -22.5624 33.6068 -6.8945 0.0000 -0.0000 -26.1210 -37.8675 8.1182 -6.2663 7.1250 -0.0000 -0.0000 -7.8577 -19.7855 -4.7788
16.1368 15.3870 -0.8366 -180.7180 -79.4299 177.2350 0.0000 0.0000 0.0000 -23.5639 -14.0468 9.9895 1.2842 7.1812 20.2533 1.4557 19.3820 -36.5739 0.0105 0.6632 1.8225 0.0000 0.0000 0.0000 25.2822 13.8581 7.3928 -1.3987 -7.4816 21.1503 -2.3773 -18.8585 -40.6190 -0.6526 5.1673 -14.3863 -0.2299 1.7576 5.3739 -0.9535 2.2884 0.0187 -1.0312 1.1317 -2.9619 10.0612 5.2869 -7.5337 -14.1015 7.8736 15.2003 -5.5999 3.2332 6.8139 -0.0000 -0.0000 0.0000 21.8792 -13.9109 -41.2934 19.1298 -29.5796 -5.0948 -0.0000 0.0000 -6.6028 41.7935 16.0277 13.8639 -7.1250 0.0000 -0.0000 14.2656 50.5030 1.9694 -0.0000 -0.0000 0.0000 -14.2468 18.3396 -41.9345 -21.1604 32.0150 -6.1347 0.0000 -0.0000 -29.0601 -36.5674 3.2279 -2.3917 7.1250 -0.0000 -0.0000 -7.5299 -25.9526 -3.5038
